<svg width="246" height="246" viewBox="0 0 246 246" fill="none" xmlns="http://www.w3.org/2000/svg">
<path d="M123 46.74C124.623 48.2255 125.653 49.7385 126.726 51.6542C126.966 52.0786 126.966 52.0786 127.211 52.5116C127.551 53.114 127.89 53.7173 128.227 54.3213C129.107 55.8977 129.998 57.4684 130.887 59.04C131.06 59.3463 131.233 59.6527 131.411 59.9683C132.622 62.11 133.862 64.2291 135.146 66.3278C136.98 69.344 138.71 72.4121 140.435 75.4913C142.243 78.7148 144.074 81.908 146.062 85.0238C149.209 89.9615 152.079 95.0619 154.989 100.142C156.601 102.956 158.219 105.768 159.838 108.578C160.149 109.117 160.459 109.656 160.779 110.211C162.558 113.292 164.358 116.358 166.201 119.4C167.579 121.678 168.907 123.982 170.232 126.29C172.328 129.942 174.506 133.541 176.706 137.13C176.972 137.564 176.972 137.564 177.243 138.006C177.419 138.294 177.596 138.583 177.778 138.88C180.861 143.919 183.772 149.04 186.599 154.228C186.884 154.75 187.169 155.272 187.463 155.81C187.836 156.498 187.836 156.498 188.215 157.2C188.894 158.432 188.894 158.432 189.757 159.479C190.404 160.392 190.404 160.392 190.404 161.868C146.404 162.03 102.405 162.193 57.0718 162.36C56.5528 159.765 56.5279 159.576 57.7579 157.478C58.0228 157.019 58.2877 156.559 58.5607 156.085C58.8507 155.599 59.1407 155.112 59.4396 154.611C59.7331 154.106 60.0266 153.601 60.329 153.081C61.2047 151.578 62.0895 150.081 62.9758 148.584C63.4261 147.814 63.8759 147.044 64.325 146.274C65.3117 144.585 66.3065 142.9 67.3046 141.218C68.326 139.494 69.3405 137.766 70.3558 136.038C71.5552 133.998 72.7551 131.958 73.9593 129.921C76.1074 126.283 78.2323 122.633 80.3366 118.97C83.4904 113.481 86.7002 108.031 89.9688 102.609C91.8136 99.5463 93.6218 96.4701 95.3805 93.357C96.8122 90.8309 98.2867 88.3295 99.7528 85.8233C101.945 82.0725 104.122 78.3137 106.272 74.538C110.583 66.9706 114.971 59.4471 119.433 51.9675C119.679 51.5521 119.926 51.1366 120.18 50.7086C120.522 50.1388 120.522 50.1388 120.87 49.5575C121.069 49.2255 121.267 48.8936 121.471 48.5516C122.016 47.724 122.016 47.724 123 46.74ZM123 54.12C122.79 54.4917 122.58 54.8633 122.364 55.2462C118.324 62.3588 114.169 69.4056 109.9 76.383C109.576 76.915 109.576 76.915 109.244 77.4578C108.101 79.3262 106.943 81.1841 105.768 83.0327C105.523 83.4226 105.278 83.8125 105.026 84.2142C104.563 84.9504 104.095 85.6839 103.622 86.4138C102.206 88.6763 101.383 90.7967 100.766 93.3967C100.299 94.6491 99.7809 95.1072 98.7073 95.8785C96.5696 97.4605 95.9877 99.418 95.0673 101.85C94.5263 103.168 93.9586 104.192 93.1415 105.35C91.722 107.366 90.5378 109.46 89.3593 111.623C87.2063 115.556 84.9484 119.423 82.6558 123.277C82.485 123.564 82.3143 123.851 82.1384 124.147C81.3018 125.553 80.4644 126.96 79.6267 128.365C76.6959 133.286 73.8022 138.221 71.0119 143.223C69.5468 145.839 68.0209 148.415 66.4658 150.978C64.1368 154.27 64.1368 154.27 62.9758 157.932C73.2353 158.009 83.4948 158.082 93.7543 158.15C98.5229 158.182 103.292 158.215 108.06 158.251C113.596 158.293 119.132 158.331 124.668 158.364C125.352 158.369 125.352 158.369 126.049 158.373C145.372 158.485 164.687 158.278 184.008 157.932C183.388 156.845 182.768 155.759 182.147 154.673C181.974 154.369 181.801 154.065 181.622 153.752C180.259 151.365 178.876 148.99 177.487 146.618C176.626 145.137 175.781 143.648 174.936 142.157C172.275 137.472 169.501 132.852 166.749 128.22C164.978 125.237 163.216 122.248 161.461 119.255C160.42 117.482 159.367 115.718 158.301 113.96C157.072 111.921 155.933 109.843 154.805 107.748C154.21 106.663 153.606 105.589 152.987 104.519C152.813 104.218 152.638 103.917 152.459 103.607C151.961 102.749 151.461 101.893 150.961 101.037C150.317 99.8552 149.781 98.7557 149.278 97.5198C148.693 95.8925 148.693 95.8925 147.415 94.8945C146.058 93.4081 145.715 92.4967 145.078 90.6203C143.54 86.3268 140.921 82.872 138.252 79.212C137.583 78.281 136.916 77.3485 136.253 76.4138C135.864 75.8782 135.864 75.8782 135.467 75.3317C134.751 74.2026 134.318 73.0724 133.824 71.832C133.298 70.9401 132.752 70.0598 132.194 69.1875C129.117 64.2681 126.325 59.182 123.492 54.12C123.329 54.12 123.167 54.12 123 54.12Z" fill="#060508"/>
<path d="M136.776 88.56C137.263 88.8847 137.75 89.2094 138.252 89.544C138.252 89.8687 138.252 90.1934 138.252 90.528C138.577 90.528 138.901 90.528 139.236 90.528C142.525 94.9708 143.688 99.317 143.172 104.796C142.291 109.608 139.344 112.957 135.792 116.112C130.915 119.45 125.339 120.053 119.556 119.556C113.537 118.376 109.396 115.61 105.78 110.7C103.325 106.541 102.891 102.682 103.32 97.908C103.9 96.08 104.722 94.5807 105.78 92.988C106.003 92.6366 106.226 92.2853 106.456 91.9233C107.102 90.9585 107.102 90.9585 108.24 89.544C108.565 89.544 108.889 89.544 109.224 89.544C109.224 89.2193 109.224 88.8945 109.224 88.56C110.483 87.9105 111.744 87.2655 113.006 86.6227C113.538 86.3473 113.538 86.3473 114.081 86.0663C121.484 82.3143 130.156 83.7666 136.776 88.56ZM109.677 91.9559C107.017 94.9567 106.049 98.3743 105.78 102.336C106.338 107.26 108.721 110.597 112.445 113.733C117.045 117.176 122.378 117.191 127.92 116.604C132.585 115.591 136.002 112.54 138.744 108.732C140.444 105.39 140.706 102.114 140.22 98.4C139.566 96.4925 138.746 94.745 137.76 92.988C137.435 92.988 137.11 92.988 136.776 92.988C136.451 92.3385 136.126 91.6891 135.792 91.02C135.467 91.02 135.142 91.02 134.808 91.02C134.808 90.6953 134.808 90.3705 134.808 90.036C131.66 88.4677 128.99 87.2521 125.46 87.084C125.076 87.0649 124.692 87.0459 124.297 87.0263C118.619 86.8674 113.948 88.0465 109.677 91.9559Z" fill="#080504"/>
<path d="M98.3195 57.6928C100.898 59.7639 102.273 62.1578 102.828 65.436C102.823 68.7201 102.408 71.5528 100.17 74.0902C97.6882 76.4789 94.7723 77.6803 91.3181 77.7648C87.4726 77.4569 84.4374 76.0117 81.6722 73.308C79.6234 70.4044 78.981 67.9783 79.2122 64.452C79.9401 61.1107 81.085 58.96 83.9862 56.9971C88.7218 54.1042 93.7945 54.6833 98.3195 57.6928ZM84.6242 59.532C84.2995 60.0191 83.9748 60.5062 83.6402 61.008C85.3584 60.3442 85.3584 60.3442 86.992 59.5013C88.6245 58.8016 90.2403 58.7244 92.0042 58.548C91.8418 58.2233 91.6795 57.8986 91.5122 57.564C88.8191 57.2947 86.8323 58.045 84.6242 59.532ZM93.9722 58.548C93.8365 58.8328 93.7008 59.1175 93.5609 59.4109C93.0039 60.4858 92.3749 61.4518 91.6967 62.4533C90.9726 63.6158 90.5404 64.3951 90.2515 65.7435C90.9874 68.851 93.4222 71.0224 95.9402 72.816C96.4273 72.9784 96.9144 73.1407 97.4162 73.308C99.3339 70.8561 100.287 68.8468 100.116 65.6974C99.5827 62.9306 98.3255 60.7219 96.094 59.0093C95.0088 58.4864 95.0088 58.4864 93.9722 58.548ZM85.1162 62.484C85.1162 62.9711 85.1162 63.4582 85.1162 63.96C85.7657 63.96 86.4151 63.96 87.0842 63.96C87.0842 63.4729 87.0842 62.9858 87.0842 62.484C86.4348 62.484 85.7853 62.484 85.1162 62.484ZM85.1162 67.896C84.9539 68.5454 84.7915 69.1949 84.6242 69.864C85.1113 69.864 85.5984 69.864 86.1002 69.864C85.9379 69.2146 85.7755 68.5651 85.6082 67.896C85.4459 67.896 85.2835 67.896 85.1162 67.896ZM88.0682 71.34C88.0682 71.8271 88.0682 72.3142 88.0682 72.816C88.7177 72.816 89.3671 72.816 90.0362 72.816C89.8739 72.3289 89.7115 71.8418 89.5442 71.34C89.0571 71.34 88.5701 71.34 88.0682 71.34ZM90.0362 75.276C90.0362 75.4384 90.0362 75.6007 90.0362 75.768C91.0104 75.768 91.9845 75.768 92.9882 75.768C92.9882 75.6056 92.9882 75.4433 92.9882 75.276C92.014 75.276 91.0399 75.276 90.0362 75.276Z" fill="#090505"/>
<path d="M134.808 80.196C134.808 80.5207 134.808 80.8454 134.808 81.18C135.244 81.2561 135.244 81.2561 135.688 81.3337C139.061 82.3826 141.546 86.6082 143.172 89.544C143.924 91.3766 144.156 92.9575 144.156 94.956C142.373 94.3617 142.113 93.8261 141.112 92.2807C140.851 91.8856 140.59 91.4905 140.322 91.0834C139.728 90.036 139.728 90.036 139.728 89.052C139.444 88.9194 139.161 88.7869 138.869 88.6503C137.743 88.059 136.785 87.3749 135.761 86.6227C130.514 83.1615 124.195 82.951 118.08 83.64C114.614 84.3729 111.571 85.996 108.732 88.068C108.407 88.068 108.082 88.068 107.748 88.068C107.621 88.3344 107.494 88.6007 107.364 88.8752C106.653 90.25 105.861 91.5524 105.042 92.865C104.743 93.3495 104.443 93.8341 104.135 94.3333C103.731 94.8851 103.731 94.8851 103.32 95.448C102.995 95.448 102.67 95.448 102.336 95.448C102.361 89.6414 105.211 85.8829 109.089 81.7662C116.521 74.6027 126.488 74.9986 134.808 80.196Z" fill="#060307"/>
<path d="M102.828 118.572C103.477 118.572 104.127 118.572 104.796 118.572C104.796 118.897 104.796 119.221 104.796 119.556C105.111 119.678 105.425 119.799 105.749 119.925C106.578 120.263 107.405 120.61 108.215 120.992C112.472 122.986 116.826 124.194 121.524 124.476C121.873 124.508 122.222 124.539 122.581 124.572C128.99 124.9 135.262 122.854 140.8 119.796C141.959 119.185 142.879 118.803 144.156 118.572C144.156 119.871 144.156 121.17 144.156 122.508C135.142 127.738 125.309 130.168 115.005 127.612C104.928 124.903 104.928 124.903 102.828 122.016C102.736 120.202 102.736 120.202 102.828 118.572Z" fill="#060405"/>
<path d="M103.32 109.224C103.645 109.224 103.969 109.224 104.304 109.224C105.046 110.158 105.046 110.158 105.841 111.376C106.106 111.776 106.372 112.176 106.645 112.587C107.256 113.652 107.256 113.652 107.256 114.636C107.581 114.636 107.905 114.636 108.24 114.636C108.24 114.961 108.24 115.285 108.24 115.62C108.494 115.742 108.747 115.864 109.009 115.989C110.208 116.604 110.208 116.604 111.653 117.526C117.762 120.998 124.134 121.292 130.818 119.573C135.575 117.99 139.373 114.953 141.665 110.454C141.838 110.048 142.01 109.642 142.188 109.224C142.513 109.224 142.837 109.224 143.172 109.224C143.321 112.353 143.383 115.334 141.696 118.08C136.895 122.518 128.194 124.174 121.893 124.124C117.122 123.762 112.38 122.463 108.24 120.048C108.24 119.723 108.24 119.399 108.24 119.064C107.854 119.003 107.469 118.942 107.071 118.879C105.78 118.572 105.78 118.572 104.796 117.588C104.492 116.553 104.231 115.505 103.996 114.451C103.868 113.89 103.74 113.328 103.608 112.749C103.32 111.192 103.32 111.192 103.32 109.224Z" fill="#070403"/>
<path d="M97.4158 177.12C99.5059 177.367 100.438 177.937 101.875 179.457C102.21 179.81 102.546 180.162 102.891 180.526C103.904 181.651 104.871 182.796 105.78 184.008C105.733 183.717 105.686 183.426 105.638 183.126C105.317 180.838 105.118 179.224 106.272 177.12C107.246 177.12 108.22 177.12 109.224 177.12C110.097 178.987 110.306 180.352 110.196 182.403C110.171 182.928 110.146 183.453 110.119 183.994C110.088 184.536 110.056 185.079 110.023 185.638C109.995 186.19 109.967 186.742 109.939 187.311C109.869 188.67 109.795 190.029 109.716 191.388C108.55 191.686 108.55 191.686 107.256 191.88C106.224 191.046 106.224 191.046 105.257 189.85C104.937 189.464 104.616 189.077 104.287 188.678C103.808 188.071 103.808 188.071 103.32 187.452C102.67 186.64 102.021 185.828 101.352 184.992C101.189 187.265 101.027 189.538 100.86 191.88C99.7233 191.88 98.5868 191.88 97.4158 191.88C96.7534 190.555 96.86 189.518 96.8585 188.036C96.8578 187.467 96.8572 186.897 96.8565 186.31C96.8584 185.713 96.8604 185.116 96.8623 184.5C96.8604 183.903 96.8585 183.305 96.8565 182.69C96.8572 182.12 96.8578 181.551 96.8585 180.964C96.859 180.439 96.8596 179.915 96.8601 179.374C96.9238 178.104 96.9238 178.104 97.4158 177.12Z" fill="#040303"/>
<path d="M115.62 177.12C116.645 177.105 117.67 177.094 118.695 177.085C119.266 177.079 119.836 177.073 120.425 177.066C123.267 177.163 124.749 177.947 126.874 179.888C128.181 181.962 128.61 183.534 128.412 185.976C127.828 188.275 126.8 189.906 124.753 191.142C122.031 192.312 119.014 192.14 116.112 191.88C115.62 191.388 115.62 191.388 115.564 190.022C115.567 189.427 115.569 188.832 115.572 188.219C115.573 187.577 115.575 186.935 115.577 186.273C115.581 185.59 115.585 184.907 115.589 184.223C115.592 183.538 115.594 182.853 115.596 182.168C115.602 180.485 115.61 178.803 115.62 177.12ZM119.556 180.564C119.556 182.999 119.556 185.435 119.556 187.944C122.338 188.222 122.338 188.222 123.676 187.145C124.715 185.626 124.777 184.831 124.476 183.024C123.728 181.825 123.728 181.825 122.508 181.056C121.047 180.813 121.047 180.813 119.556 180.564Z" fill="#050203"/>
<path d="M135.3 177.059C136.776 177.12 136.776 177.12 137.268 177.612C137.372 178.987 137.453 180.355 137.514 181.733C137.612 184.634 137.612 184.634 138.252 187.452C139.064 187.614 139.876 187.777 140.712 187.944C141.86 186.143 141.782 184.631 141.727 182.532C141.637 178.83 141.637 178.83 142.188 177.12C143.325 177.12 144.461 177.12 145.632 177.12C147.105 180.066 146.216 184.756 145.519 187.879C144.82 189.816 143.503 190.977 141.696 191.88C139.298 192.216 137.695 192.129 135.577 190.896C132.496 187.29 133.104 182.115 133.332 177.612C133.824 177.12 133.824 177.12 135.3 177.059Z" fill="#060303"/>
<path d="M158.424 177.12C159.931 178.35 159.931 178.35 160.884 179.58C160.269 180.564 160.269 180.564 159.408 181.548C158.759 181.548 158.109 181.548 157.44 181.548C157.44 182.035 157.44 182.522 157.44 183.024C157.815 183.146 158.191 183.267 158.578 183.393C160.071 184.088 160.611 184.526 161.376 185.976C161.661 187.89 161.54 188.673 160.484 190.312C159.027 191.769 157.798 191.968 155.81 192.034C153.47 192.022 152.339 191.378 150.552 189.912C150.718 188.667 150.85 188.1 151.844 187.298C153.468 186.828 154.808 187.172 156.456 187.452C156.618 187.29 156.781 187.127 156.948 186.96C156.651 186.846 156.354 186.733 156.049 186.616C151.779 184.873 151.779 184.873 150.552 182.532C150.465 180.45 150.904 179.741 152.274 178.165C154.172 176.757 156.151 176.577 158.424 177.12ZM154.98 180.564C154.818 181.051 154.655 181.538 154.488 182.04C155.706 182.283 155.706 182.283 156.948 182.532C156.948 181.883 156.948 181.233 156.948 180.564C156.299 180.564 155.649 180.564 154.98 180.564Z" fill="#080404"/>
<path d="M122.508 136.284C122.995 136.284 123.482 136.284 123.984 136.284C124.258 137.212 124.258 137.212 124.537 138.16C125.153 139.812 125.363 140.156 126.905 141.173C128.064 141.575 129.176 141.956 130.38 142.188C130.38 142.837 130.38 143.487 130.38 144.156C130.072 144.251 129.763 144.346 129.446 144.444C129.044 144.572 128.642 144.7 128.227 144.832C127.828 144.958 127.428 145.084 127.017 145.213C125.871 145.582 125.871 145.582 124.968 146.616C124.673 147.364 124.409 148.124 124.168 148.891C124.04 149.293 123.912 149.696 123.78 150.11C123.685 150.418 123.59 150.726 123.492 151.044C123.167 150.882 122.842 150.719 122.508 150.552C122.386 149.933 122.264 149.314 122.139 148.676C121.745 146.942 121.585 146.668 120.14 145.447C118.812 144.77 117.517 144.16 116.112 143.664C116.112 143.177 116.112 142.69 116.112 142.188C116.721 141.995 117.33 141.802 117.957 141.604C119.911 140.871 120.908 140.069 122.016 138.252C122.399 137.178 122.399 137.178 122.508 136.284Z" fill="#050304"/>
<path d="M92.4958 135.792C93.9718 136.776 93.9718 136.776 94.556 138.467C95.5094 140.341 95.6663 140.499 97.508 141.173C98.127 141.346 98.746 141.518 99.3838 141.696C99.2214 142.345 99.0591 142.995 98.8918 143.664C98.0851 143.771 98.0851 143.771 97.262 143.879C96.2917 144.095 96.2917 144.095 95.4478 144.648C94.6958 146.066 94.3098 147.512 93.9718 149.076C93.4847 149.076 92.9976 149.076 92.4958 149.076C92.4406 148.774 92.3854 148.471 92.3286 148.159C92.0111 146.858 91.6886 145.812 91.0198 144.648C89.6019 143.833 88.1937 143.464 86.5918 143.172C86.5918 142.523 86.5918 141.873 86.5918 141.204C88.053 140.717 89.5143 140.23 91.0198 139.728C91.0807 139.353 91.1416 138.977 91.2043 138.59C91.5118 137.268 91.5118 137.268 92.4958 135.792Z" fill="#050303"/>
<path d="M155.472 129.888C155.959 130.05 156.446 130.213 156.948 130.38C157.501 132.041 157.501 132.041 157.932 133.824C158.094 134.311 158.257 134.798 158.424 135.3C159.56 135.462 160.697 135.625 161.868 135.792C162.03 136.442 162.193 137.091 162.36 137.76C162.063 137.815 161.766 137.87 161.46 137.927C158.952 138.533 158.952 138.533 157.2 140.32C156.722 141.424 156.309 142.513 155.964 143.664C155.639 143.502 155.314 143.339 154.98 143.172C154.838 142.624 154.696 142.076 154.549 141.512C153.96 139.614 153.722 139.172 152.028 138.252C151.217 137.902 150.399 137.568 149.568 137.268C149.73 136.781 149.893 136.294 150.06 135.792C151.042 135.481 151.042 135.481 152.243 135.239C153.459 134.934 153.459 134.934 154.488 134.316C155.174 132.869 155.369 131.478 155.472 129.888Z" fill="#050303"/>
<path d="M87.5759 177.12C88.7237 177.099 89.872 177.1 91.0199 177.12C91.9204 178.021 91.576 179.448 91.5772 180.656C91.5782 181.583 91.5782 181.583 91.5791 182.528C91.5776 183.013 91.5776 183.013 91.576 183.508C91.5734 184.496 91.576 185.484 91.5791 186.472C91.5785 187.09 91.5779 187.707 91.5772 188.344C91.5767 188.915 91.5761 189.487 91.5755 190.075C91.5119 191.388 91.5119 191.388 91.0199 191.88C89.5439 191.941 89.5439 191.941 88.0679 191.88C87.5759 191.388 87.5759 191.388 87.52 190.022C87.5226 189.427 87.5252 188.832 87.5278 188.219C87.5294 187.577 87.531 186.935 87.5326 186.273C87.5367 185.59 87.5409 184.906 87.5451 184.223C87.5476 183.538 87.5498 182.853 87.5519 182.168C87.5577 180.485 87.5658 178.803 87.5759 177.12Z" fill="#060202"/>
<path d="M121.032 90.036C121.194 90.5231 121.357 91.0101 121.524 91.512C120.14 92.3924 118.894 93.0486 117.342 93.603C114.943 94.8026 113.725 96.3923 112.791 98.8978C112.555 99.7073 112.361 100.529 112.176 101.352C111.356 101.373 110.536 101.372 109.716 101.352C109.224 100.86 109.224 100.86 109.214 99.9471C109.523 96.4758 110.544 94.595 113.068 92.127C115.613 90.3306 117.952 89.8858 121.032 90.036Z" fill="#080605"/>
<path d="M68.8686 182.484C69.3743 182.485 69.3743 182.485 69.8903 182.486C70.9681 182.489 72.0459 182.495 73.1237 182.501C73.854 182.504 74.5843 182.506 75.3146 182.508C77.1058 182.513 78.897 182.522 80.6882 182.532C80.5258 183.344 80.3634 184.156 80.1962 184.992C75.3254 184.992 70.4546 184.992 65.4361 184.992C65.1114 184.343 64.7867 183.693 64.4521 183.024C65.9152 182.292 67.2383 182.477 68.8686 182.484Z" fill="#070201"/>
<path d="M166.788 182.532C171.659 182.532 176.53 182.532 181.548 182.532C181.548 183.182 181.548 183.831 181.548 184.5C178.317 184.918 175.179 185.054 171.923 185.023C171.474 185.021 171.025 185.018 170.562 185.016C169.468 185.01 168.374 185.002 167.28 184.992C167.118 184.18 166.955 183.369 166.788 182.532Z" fill="#070301"/>
<path d="M144.156 96.924C145.14 96.9031 146.124 96.9039 147.108 96.924C147.6 97.416 147.6 97.416 147.648 98.5057C147.642 98.9477 147.637 99.3898 147.631 99.8452C147.626 100.286 147.622 100.727 147.617 101.181C147.609 101.753 147.609 101.753 147.6 102.336C147.6 102.661 147.6 102.985 147.6 103.32C147.6 104.468 147.6 105.616 147.6 106.764C146.62 106.952 145.635 107.115 144.648 107.256C144.156 106.764 144.156 106.764 144.1 105.805C144.104 105.19 144.104 105.19 144.108 104.563C144.109 104.121 144.111 103.679 144.113 103.223C144.117 102.758 144.121 102.293 144.125 101.813C144.127 101.346 144.13 100.879 144.132 100.398C144.138 99.2398 144.146 98.0819 144.156 96.924Z" fill="#090503"/>
<path d="M99.384 96.924C100.196 96.924 101.008 96.924 101.844 96.924C102.189 100.22 102.39 103.449 102.336 106.764C101.475 107.133 101.475 107.133 100.368 107.256C99.2725 106.503 99.2725 106.503 98.4 105.288C98.1732 103.766 98.1732 103.766 98.2155 102.09C98.2218 101.537 98.2282 100.984 98.2347 100.414C98.3899 98.9849 98.6415 98.1357 99.384 96.924Z" fill="#060403"/>
<path d="M155.472 68.88C155.959 68.88 156.446 68.88 156.948 68.88C156.978 69.1844 157.009 69.4888 157.04 69.8025C157.356 70.9846 157.356 70.9846 158.701 71.463C159.096 71.5848 159.492 71.7065 159.9 71.832C159.737 72.3191 159.575 72.8061 159.408 73.308C158.393 73.6462 158.393 73.6462 157.44 73.8C157.277 74.6118 157.115 75.4236 156.948 76.26C156.461 76.26 155.974 76.26 155.472 76.26C155.309 75.4482 155.147 74.6364 154.98 73.8C153.519 73.5564 153.519 73.5564 152.028 73.308C152.028 72.8209 152.028 72.3338 152.028 71.832C152.413 71.7102 152.799 71.5884 153.196 71.463C154.647 70.7723 154.932 70.3527 155.472 68.88Z" fill="#090404"/>
<path d="M92.9878 61.992C94.2387 62.4753 94.8352 62.7469 95.4709 63.9542C96.6322 67.7931 96.6322 67.7931 96.4318 69.864C96.1071 70.0264 95.7824 70.1887 95.4478 70.356C94.1563 69.7102 94.1563 69.7102 92.9878 68.88C92.9878 68.5553 92.9878 68.2306 92.9878 67.896C92.6631 67.896 92.3384 67.896 92.0038 67.896C91.3377 64.8077 91.3377 64.8077 92.219 63.0067C92.4727 62.6719 92.7264 62.337 92.9878 61.992Z" fill="#0D0B0D"/>
<path d="M141.696 145.632C142.508 145.632 143.32 145.632 144.156 145.632C144.156 146.281 144.156 146.931 144.156 147.6C144.643 147.762 145.13 147.925 145.632 148.092C145.47 148.741 145.307 149.391 145.14 150.06C144.815 150.06 144.491 150.06 144.156 150.06C143.994 150.709 143.831 151.359 143.664 152.028C141.808 151.763 140.868 151.046 139.728 149.568C139.79 148.492 139.79 148.492 140.22 147.6C140.545 147.438 140.869 147.275 141.204 147.108C141.366 146.621 141.529 146.134 141.696 145.632Z" fill="#040303"/>
<path d="M93.4798 117.588C93.8046 117.588 94.1293 117.588 94.4638 117.588C94.5856 117.892 94.7074 118.197 94.8328 118.51C95.4529 119.782 95.4529 119.782 97.4158 120.54C96.4417 121.839 95.4675 123.138 94.4638 124.476C93.8144 124.314 93.165 124.151 92.4958 123.984C92.6582 123.497 92.8206 123.01 92.9878 122.508C92.176 122.346 91.3642 122.183 90.5278 122.016C90.6508 121.093 90.6508 121.093 91.0198 120.048C91.6675 119.704 92.3237 119.375 92.9878 119.064C93.1502 118.577 93.3126 118.09 93.4798 117.588Z" fill="#050404"/>
<path d="M168.356 145.817C168.651 145.918 168.945 146.019 169.248 146.124C169.248 146.611 169.248 147.098 169.248 147.6C169.735 147.762 170.222 147.925 170.724 148.092C170.724 148.741 170.724 149.391 170.724 150.06C170.237 150.06 169.75 150.06 169.248 150.06C169.086 150.872 168.923 151.684 168.756 152.52C167.538 152.033 167.538 152.033 166.296 151.536C166.458 151.211 166.621 150.887 166.788 150.552C166.301 150.39 165.814 150.227 165.312 150.06C165.466 148.4 165.466 148.4 165.804 146.616C167.28 145.632 167.28 145.632 168.356 145.817Z" fill="#060403"/>
<path d="M78.7199 145.632C79.7039 146.616 79.7039 146.616 79.7039 148.092C80.191 148.254 80.678 148.417 81.1799 148.584C81.1799 149.071 81.1799 149.558 81.1799 150.06C80.6928 150.304 80.6928 150.304 80.1959 150.552C79.6382 151.544 79.6382 151.544 79.2119 152.52C77.7973 151.886 76.7484 151.274 75.7679 150.06C75.4296 148.984 75.4296 148.984 75.2759 148.092C75.6006 148.092 75.9253 148.092 76.2599 148.092C76.2599 147.605 76.2599 147.118 76.2599 146.616C77.0717 146.291 77.8835 145.967 78.7199 145.632Z" fill="#030202"/>
<path d="M107.256 146.124C107.581 146.286 107.905 146.449 108.24 146.616C108.24 147.103 108.24 147.59 108.24 148.092C108.889 148.417 109.539 148.741 110.208 149.076C109.285 150.982 109.285 150.982 108.732 151.536C108.894 151.861 109.057 152.185 109.224 152.52C108.412 152.52 107.6 152.52 106.764 152.52C106.439 151.871 106.114 151.221 105.78 150.552C105.455 150.552 105.13 150.552 104.796 150.552C104.958 149.74 105.121 148.928 105.288 148.092C105.613 148.092 105.937 148.092 106.272 148.092C106.272 147.605 106.272 147.118 106.272 146.616C106.597 146.454 106.921 146.291 107.256 146.124Z" fill="#050302"/>
<path d="M123 63.96C123.325 63.96 123.649 63.96 123.984 63.96C124.146 64.7718 124.309 65.5836 124.476 66.42C124.963 66.42 125.45 66.42 125.952 66.42C125.768 67.3732 125.768 67.3732 125.46 68.388C124.973 68.6315 124.973 68.6315 124.476 68.88C124.155 69.8761 124.155 69.8761 123.984 70.848C123.497 70.6856 123.01 70.5233 122.508 70.356C122.346 69.8689 122.183 69.3818 122.016 68.88C121.529 68.7176 121.042 68.5553 120.54 68.388C120.54 67.7385 120.54 67.0891 120.54 66.42C120.865 66.42 121.189 66.42 121.524 66.42C121.752 65.9481 121.752 65.9481 121.985 65.4667C122.508 64.452 122.508 64.452 123 63.96Z" fill="#070301"/>
<path d="M152.028 118.08C152.84 118.242 153.652 118.405 154.488 118.572C154.488 119.059 154.488 119.546 154.488 120.048C154.975 120.048 155.462 120.048 155.964 120.048C155.964 120.535 155.964 121.022 155.964 121.524C155.477 121.849 154.99 122.173 154.488 122.508C154.326 122.995 154.164 123.482 153.996 123.984C153.509 123.984 153.022 123.984 152.52 123.984C152.47 123.669 152.419 123.355 152.366 123.031C152.255 122.696 152.143 122.361 152.028 122.016C151.541 121.854 151.054 121.691 150.552 121.524C150.552 121.037 150.552 120.55 150.552 120.048C151.039 119.886 151.526 119.723 152.028 119.556C152.028 119.069 152.028 118.582 152.028 118.08Z" fill="#050404"/>
<path d="M103.812 130.38C105.232 130.576 105.692 130.769 106.641 131.887C106.945 132.359 106.945 132.359 107.256 132.84C106.607 133.652 105.957 134.464 105.288 135.3C104.089 134.962 104.089 134.962 102.828 134.316C102.428 133.025 102.428 133.025 102.336 131.856C102.823 131.694 103.31 131.531 103.812 131.364C103.812 131.039 103.812 130.715 103.812 130.38Z" fill="#050403"/>
<path d="M142.68 130.38C143.664 131.856 143.664 131.856 143.572 132.84C143.123 133.944 142.589 134.524 141.696 135.3C140.884 134.488 140.072 133.676 139.236 132.84C140.108 130.908 140.456 130.38 142.68 130.38Z" fill="#050301"/>
<path d="M114.636 93.48C114.798 93.9671 114.961 94.4542 115.128 94.956C114.477 95.9435 113.82 96.9269 113.16 97.908C112.741 99.0495 112.461 100.166 112.176 101.352C111.527 101.19 110.877 101.027 110.208 100.86C110.533 100.698 110.857 100.535 111.192 100.368C111.05 100.043 110.908 99.7186 110.762 99.384C110.675 97.2996 111.634 96.3851 112.893 94.7946C113.652 93.972 113.652 93.972 114.636 93.48Z" fill="#0B0B0E"/>
<path d="M92.9879 61.992C93.9488 62.3418 93.9488 62.3418 94.9559 62.976C95.2557 64.0407 95.2557 64.0407 95.3249 65.2515C95.3528 65.6536 95.3807 66.0557 95.4095 66.47C95.4222 66.7782 95.4348 67.0864 95.4479 67.404C94.3114 66.9169 93.1749 66.4298 92.0039 65.928C92.4344 62.5455 92.4344 62.5455 92.9879 61.992Z" fill="#1C181A"/>
<path d="M109.716 102.336C110.54 102.477 111.361 102.64 112.176 102.828C112.176 104.127 112.176 105.426 112.176 106.764C111.364 106.602 110.553 106.439 109.716 106.272C109.529 105.128 109.365 103.979 109.224 102.828C109.386 102.666 109.549 102.503 109.716 102.336Z" fill="#020201"/>
<path d="M149.076 110.208C149.9 110.349 150.721 110.512 151.536 110.7C151.843 111.592 151.843 111.592 152.028 112.668C151.541 113.399 151.541 113.399 151.044 114.144C149.568 114.144 149.568 114.144 148.707 113.529C148.092 112.668 148.092 112.668 148.215 111.622C148.584 110.7 148.584 110.7 149.076 110.208Z" fill="#0B0907"/>
<path d="M96.4321 109.716C97.0815 110.041 97.7309 110.365 98.4001 110.7C98.4001 111.349 98.4001 111.999 98.4001 112.668C98.0753 112.993 97.7506 113.317 97.4161 113.652C96.929 113.652 96.4419 113.652 95.9401 113.652C94.9561 112.176 94.9561 112.176 94.9561 110.7C95.4431 110.375 95.9302 110.051 96.4321 109.716Z" fill="#070704"/>
<path d="M128.904 77.244C129.612 77.5498 130.319 77.8577 131.026 78.1665C131.616 78.4233 131.616 78.4233 132.219 78.6854C133.332 79.212 133.332 79.212 134.808 80.196C134.808 80.5207 134.808 80.8454 134.808 81.18C135.122 81.2409 135.437 81.3018 135.761 81.3645C136.096 81.466 136.431 81.5674 136.776 81.672C136.938 81.9967 137.101 82.3214 137.268 82.656C134.999 82.032 133.264 81.0583 131.316 79.7905C130.23 79.1191 129.126 78.6427 127.92 78.228C128.245 77.9033 128.569 77.5785 128.904 77.244Z" fill="#0E0B0D"/>
<path d="M82.6562 68.388C83.1433 68.5504 83.6303 68.7127 84.1322 68.88C84.2945 69.8542 84.4569 70.8283 84.6242 71.832C83.9747 71.6697 83.3253 71.5073 82.6562 71.34C82.4938 71.6647 82.3315 71.9895 82.1642 72.324C81.8395 72.1617 81.5147 71.9993 81.1802 71.832C81.1802 71.1826 81.1802 70.5331 81.1802 69.864C81.5049 69.864 81.8296 69.864 82.1642 69.864C82.3265 69.3769 82.4889 68.8899 82.6562 68.388Z" fill="#140B06"/>
<path d="M135.792 112.668C135.629 113.642 135.467 114.616 135.3 115.62C134.163 115.782 133.027 115.945 131.856 116.112C131.693 115.625 131.531 115.138 131.364 114.636C134.685 112.668 134.685 112.668 135.792 112.668Z" fill="#0C090C"/>
<path d="M83.1479 72.816C83.4727 72.816 83.7974 72.816 84.1319 72.816C84.1319 73.1407 84.1319 73.4654 84.1319 73.8C84.5378 73.9319 84.9437 74.0638 85.3619 74.1998C87.2656 74.8456 89.1405 75.5471 91.0199 76.26C91.0199 76.4224 91.0199 76.5847 91.0199 76.752C90.0519 76.6372 89.0841 76.5204 88.1179 76.3907C87.315 76.2892 86.5077 76.2216 85.7002 76.1678C84.6239 75.768 84.6239 75.768 83.7322 74.2613C83.5394 73.7843 83.3466 73.3074 83.1479 72.816Z" fill="#150D07"/>
<path d="M128.412 127.428C128.25 127.753 128.088 128.077 127.92 128.412C125.81 128.412 123.699 128.412 121.524 128.412C121.362 128.087 121.2 127.762 121.032 127.428C126.227 126.772 126.227 126.772 128.412 127.428Z" fill="#0F0D0A"/>
<path d="M112.176 64.4519C112.716 66.0705 112.57 66.7707 112.176 68.3879C111.689 68.5503 111.202 68.7127 110.7 68.8799C110.192 69.8557 109.7 70.8398 109.224 71.8319C108.737 72.0755 108.737 72.0755 108.24 72.3239C109.013 69.3884 110.577 66.996 112.176 64.4519Z" fill="#030000"/>
<path d="M145.14 97.908C145.627 97.908 146.114 97.908 146.616 97.908C146.76 100.887 146.76 100.887 146.616 101.844C146.129 102.169 145.642 102.493 145.14 102.828C145.044 102.101 144.953 101.373 144.863 100.645C144.812 100.239 144.76 99.8342 144.708 99.4167C144.688 99.0812 144.668 98.7457 144.648 98.4C144.81 98.2376 144.973 98.0753 145.14 97.908Z" fill="#060101"/>
<path d="M144.156 96.924C145.14 96.9031 146.124 96.9039 147.108 96.924C147.6 97.416 147.6 97.416 147.648 98.325C147.632 99.334 147.616 100.343 147.6 101.352C147.113 101.596 147.113 101.596 146.616 101.844C146.616 100.545 146.616 99.2462 146.616 97.908C145.804 97.908 144.993 97.908 144.156 97.908C144.156 97.5833 144.156 97.2586 144.156 96.924Z" fill="#14100D"/>
<path d="M110.7 107.256C111.512 107.256 112.324 107.256 113.16 107.256C113.323 108.068 113.485 108.88 113.652 109.716C112.84 109.716 112.029 109.716 111.192 109.716C111.03 108.904 110.867 108.092 110.7 107.256Z" fill="#040402"/>
<path d="M100.368 65.4361C100.855 65.5984 101.342 65.7608 101.844 65.9281C102.182 67.3118 102.182 67.3118 102.336 68.8801C101.629 69.8026 101.629 69.8026 100.86 70.3561C99.5972 68.4617 99.9583 67.6079 100.368 65.4361Z" fill="#140C0B"/>
<path d="M93.4799 63.468C94.4639 64.452 94.4639 64.452 94.4639 66.42C93.6521 66.2576 92.8403 66.0953 92.0039 65.928C92.1884 64.9747 92.1884 64.9747 92.4959 63.96C92.8206 63.7976 93.1453 63.6353 93.4799 63.468Z" fill="#35343B"/>
<path d="M142.188 177.12C143.325 177.12 144.461 177.12 145.632 177.12C145.47 177.932 145.307 178.744 145.14 179.58C144.166 179.093 143.192 178.606 142.188 178.104C142.188 177.779 142.188 177.455 142.188 177.12Z" fill="#0D0907"/>
<path d="M109.716 102.336C110.934 102.58 110.934 102.58 112.176 102.828C112.176 103.64 112.176 104.452 112.176 105.288C110.946 104.642 110.946 104.642 109.716 103.812C109.716 103.325 109.716 102.838 109.716 102.336Z" fill="#080808"/>
<path d="M142.68 91.5119C143.005 91.5119 143.329 91.5119 143.664 91.5119C143.826 92.6485 143.989 93.785 144.156 94.9559C143.669 94.7936 143.182 94.6312 142.68 94.4639C142.492 93.6491 142.329 92.8283 142.188 92.0039C142.35 91.8416 142.513 91.6792 142.68 91.5119Z" fill="#110D02"/>
<path d="M120.54 177.612C120.54 177.937 120.54 178.261 120.54 178.596C119.241 178.758 117.942 178.921 116.604 179.088C116.604 178.601 116.604 178.114 116.604 177.612C118.106 177.129 119.038 177.129 120.54 177.612Z" fill="#0E090A"/>
<path d="M78.228 146.616C78.5527 146.778 78.8774 146.941 79.212 147.108C79.212 147.757 79.212 148.407 79.212 149.076C78.7249 149.238 78.2378 149.401 77.736 149.568C77.4112 149.243 77.0865 148.919 76.752 148.584C77.239 147.935 77.7261 147.285 78.228 146.616Z" fill="#0A0A0C"/>
<path d="M136.776 123.492C136.938 123.817 137.101 124.142 137.268 124.476C137.593 124.476 137.917 124.476 138.252 124.476C138.089 124.963 137.927 125.45 137.76 125.952C136.948 125.952 136.136 125.952 135.3 125.952C135.3 124.968 135.3 124.968 136.038 124.169C136.281 123.945 136.525 123.722 136.776 123.492Z" fill="#0A060D"/>
</svg>
